<svg width="147" height="49" viewBox="0 0 147 49" fill="none" xmlns="http://www.w3.org/2000/svg">
<path d="M61.9731 16.7669L62.7378 23.8735L62.5613 22.8075C63.3065 21.2677 64.3262 19.9649 65.6205 18.8989C66.9147 17.7934 68.1894 16.9446 69.4444 16.3523C70.7386 15.7601 71.7191 15.464 72.3858 15.464L71.974 23.755C70.0523 23.5182 68.4051 23.834 67.0324 24.7026C65.6597 25.5712 64.6008 26.7161 63.8556 28.1374C63.1104 29.5588 62.7378 31.0196 62.7378 32.5198V42.6467H54.5605V16.7669H61.9731Z" fill="black"/>
<path d="M74.6004 16.7669H82.8365V42.6467H74.6004V16.7669ZM74.4239 7.58755C74.4239 6.36363 74.8946 5.35687 75.8358 4.56725C76.8163 3.77762 77.8556 3.38281 78.9538 3.38281C80.0519 3.38281 81.052 3.77762 81.9541 4.56725C82.8954 5.35687 83.366 6.36363 83.366 7.58755C83.366 8.81146 82.8954 9.81822 81.9541 10.6078C81.052 11.358 80.0519 11.7331 78.9538 11.7331C77.8556 11.7331 76.8163 11.358 75.8358 10.6078C74.8946 9.81822 74.4239 8.81146 74.4239 7.58755Z" fill="black"/>
<path d="M101.929 24.9987L106.811 16.7669H114.989L104.811 30.9801L101.929 24.9987ZM116.401 42.6467H106.459L86.633 16.7669H96.7517L116.401 42.6467ZM100.87 34.3557L95.1045 42.6467H86.9272L97.1047 28.7889L100.87 34.3557Z" fill="black"/>
<path d="M125.131 47.7933L139.588 16.7669H147.001L133.073 47.7933H125.131ZM129.352 42.7652L116.762 16.7669H125.998L135.705 38.6197L129.352 42.7652Z" fill="black"/>
<path d="M48.2421 26.5532C48.2814 23.9976 47.6634 21.4496 46.4076 19.0662C44.5818 15.601 41.4898 12.6392 37.5228 10.5554C33.5561 8.47176 28.8926 7.35955 24.1219 7.35938C19.3512 7.35955 14.6877 8.4962 10.721 10.5798C6.75399 12.6637 3.66208 15.6255 1.83627 19.0907C0.584475 21.4665 -0.0336333 24.0058 0.00141054 26.5532C-0.0336333 29.1005 0.584475 31.6398 1.83627 34.0156C3.66208 37.4809 6.75399 40.4427 10.721 42.5265C14.6877 44.6101 19.3512 45.7468 24.1219 45.7469C28.8926 45.7468 33.5561 44.6346 37.5228 42.5509C41.4898 40.4671 44.5818 37.5053 46.4076 34.0401C47.6634 31.6567 48.2814 29.1087 48.2421 26.5532Z" fill="#030202"/>
<path d="M22.7977 25.8702C20.2262 31.6924 7.78125 32.1466 7.78125 18.7734L22.7977 25.8702Z" fill="white"/>
<path d="M24.8722 25.8702C27.4437 31.6924 39.8887 32.1466 39.8887 18.7734L24.8722 25.8702Z" fill="white"/>
<path d="M0 0V22.4995C8.00315e-05 38.3085 24.3502 41.829 24.3502 41.829C24.3502 41.829 48.5424 38.3086 48.5425 22.4996V0L33.5385 18.1758H15.0041L0 0Z" fill="#030202"/>
<path d="M41.1039 24.9966C40.4158 17.5839 33.3165 22.3781 29.2401 26.9628L25.4967 31.1729C25.4967 31.1729 41.791 32.4002 41.1039 24.9966Z" fill="white"/>
<path d="M7.52309 24.9966C8.21112 17.5839 15.3104 22.3781 19.3869 26.9628L23.1303 31.1729C23.1303 31.1729 6.83592 32.4002 7.52309 24.9966Z" fill="white"/>
<path d="M31.0373 47.5593C38.696 46.5379 43.2002 43.1588 46.2757 38.4421" stroke="black" stroke-width="2.76777"/>
</svg>
