<svg width="87" height="30" viewBox="0 0 87 30" fill="none" xmlns="http://www.w3.org/2000/svg">
<path d="M36.676 10.3547L37.1286 14.5606L37.0242 13.9297C37.4652 13.0185 38.0687 12.2474 38.8347 11.6165C39.6007 10.9622 40.355 10.4599 41.0978 10.1094C41.8638 9.75888 42.444 9.58363 42.8386 9.58363L42.5949 14.4905C41.4576 14.3503 40.4827 14.5373 39.6703 15.0513C38.8579 15.5654 38.2312 16.243 37.7902 17.0842C37.3491 17.9253 37.1286 18.7899 37.1286 19.6778V25.6712H32.2891V10.3547H36.676Z" fill="black"/>
<path d="M44.1493 10.3547H49.0237V25.6712H44.1493V10.3547ZM44.0448 4.92209C44.0448 4.19774 44.3234 3.6019 44.8805 3.13458C45.4607 2.66726 46.0758 2.43359 46.7258 2.43359C47.3757 2.43359 47.9676 2.66726 48.5014 3.13458C49.0585 3.6019 49.337 4.19774 49.337 4.92209C49.337 5.64644 49.0585 6.24227 48.5014 6.7096C47.9676 7.15355 47.3757 7.37553 46.7258 7.37553C46.0758 7.37553 45.4607 7.15355 44.8805 6.7096C44.3234 6.24227 44.0448 5.64644 44.0448 4.92209Z" fill="black"/>
<path d="M60.323 15.2266L63.2128 10.3547H68.0524L62.029 18.7665L60.323 15.2266ZM68.888 25.6712H63.0039L51.2706 10.3547H57.2591L68.888 25.6712ZM59.6963 20.7643L56.2842 25.6712H51.4446L57.468 17.4697L59.6963 20.7643Z" fill="black"/>
<path d="M74.0547 28.7171L82.611 10.3547H86.998L78.755 28.7171H74.0547ZM76.5529 25.7413L69.102 10.3547H74.5683L80.3131 23.2879L76.5529 25.7413Z" fill="black"/>
<path d="M28.5512 16.1407C28.5745 14.6283 28.2087 13.1203 27.4655 11.7097C26.3849 9.65891 24.555 7.90603 22.2072 6.67276C19.8596 5.4396 17.0996 4.78135 14.2761 4.78125C11.4527 4.78135 8.69264 5.45406 6.34502 6.68723C3.99722 7.92049 2.16733 9.67337 1.08676 11.7242C0.345911 13.1303 -0.0199052 14.6331 0.000834801 16.1407C-0.0199052 17.6484 0.345911 19.1512 1.08676 20.5573C2.16733 22.6081 3.99722 24.361 6.34502 25.5942C8.69264 26.8274 11.4527 27.5001 14.2761 27.5002C17.0996 27.5001 19.8596 26.8419 22.2072 25.6087C24.555 24.3755 26.3849 22.6226 27.4655 20.5717C28.2087 19.1612 28.5745 17.6532 28.5512 16.1407Z" fill="#030202"/>
<path d="M13.4907 15.7352C11.9688 19.181 4.60352 19.4498 4.60352 11.5352L13.4907 15.7352Z" fill="white"/>
<path d="M14.7183 15.7352C16.2402 19.181 23.6055 19.4498 23.6055 11.5352L14.7183 15.7352Z" fill="white"/>
<path d="M0 0.421875V13.7378C4.73652e-05 23.0941 14.4112 25.1776 14.4112 25.1776C14.4112 25.1776 28.7289 23.0941 28.729 13.7378V0.421875L19.8491 11.1789H8.87987L0 0.421875Z" fill="#030202"/>
<path d="M24.3273 15.2166C23.9201 10.8295 19.7185 13.6669 17.306 16.3802L15.0905 18.8719C15.0905 18.8719 24.734 19.5982 24.3273 15.2166Z" fill="white"/>
<path d="M4.45392 15.2166C4.86111 10.8295 9.0627 13.6669 11.4753 16.3802L13.6907 18.8719C13.6907 18.8719 4.04723 19.5982 4.45392 15.2166Z" fill="white"/>
<path d="M18.3669 28.5778C22.8996 27.9733 25.5653 25.9734 27.3855 23.1819" stroke="black" stroke-width="1.63805"/>
</svg>
