<svg width="24" height="24" viewBox="0 0 24 24" fill="none" xmlns="http://www.w3.org/2000/svg">
<path d="M7.20039 8.80039H4.80039C3.47491 8.80039 2.40039 9.87491 2.40039 11.2004C2.40039 12.5259 2.40039 17.8749 2.40039 19.2004C2.40039 20.5259 3.47491 21.6004 4.80039 21.6004C4.80039 21.6004 11.4749 21.6004 12.8004 21.6004C14.1259 21.6004 15.2004 20.5259 15.2004 19.2004V16.2004M19.2004 2.40039L11.2004 2.40039C9.87491 2.40039 8.80039 3.47491 8.80039 4.80039C8.80039 6.12587 8.80039 11.4749 8.80039 12.8004C8.80039 14.1259 9.87491 15.2004 11.2004 15.2004C11.2004 15.2004 17.8749 15.2004 19.2004 15.2004C20.5259 15.2004 21.6004 14.1259 21.6004 12.8004V4.80039C21.6004 3.47491 20.5259 2.40039 19.2004 2.40039Z" stroke="white" stroke-width="2" stroke-linecap="round" stroke-linejoin="round"/>
</svg>
